# FreeCAD v1.0 build0 Arch module
# https://www.freecad.org
mtllib FanPinHeader_1x03_P2.54mm_Vertical.mtl
o Body
usemtl color_acb5bc
o Pocket
usemtl color_ffffff
v 6.37 2.54 0.0
v -1.29 2.54 0.0
v 6.37 2.54 2.5
v -1.29 2.54 2.5
v 6.37 -3.3 2.5
v 6.37 -2.285471 2.380342
v 6.37 -2.3 2.5
v 6.37 -2.242728 2.267638
v 6.37 -2.174255 2.168439
v 6.37 -1.739732 2.003646
v 6.37 -3.3 0.0
v 6.37 -1.622698 2.032492
v 6.37 -1.860268 2.003646
v 6.37 -1.977302 2.032492
v 6.37 -2.084032 2.088508
v 6.37 -1.314529 2.380342
v 6.37 -1.3 2.5
v 6.37 -1.357272 2.267638
v 6.37 -1.425745 2.168439
v 6.37 -1.515968 2.088508
v -1.29 -1.314529 2.380342
v -1.29 -1.3 2.5
v -1.29 -1.357272 2.267638
v -1.29 -1.425745 2.168439
v -1.29 -1.515968 2.088508
v -1.29 -1.622698 2.032492
v -1.29 -2.174255 2.168439
v -1.29 -3.3 2.5
v -1.29 -2.242728 2.267638
v -1.29 -2.285471 2.380342
v -1.29 -2.3 2.5
v -1.29 -3.3 0.0
v -1.29 -1.739732 2.003646
v -1.29 -1.860268 2.003646
v -1.29 -1.977302 2.032492
v -1.29 -2.084032 2.088508
v 5.08 -2.3 2.5
v -0.0 -2.3 2.5
v 5.08 -3.3 2.5
v -0.0 -3.3 2.5
v 5.08 -2.3 5.5
v -0.0 -2.3 5.5
v 5.08 -3.3 7.5
v 5.08 -2.3 7.5
v -0.0 -3.3 7.5
v -0.0 -2.3 7.5
v -0.0 -1.15 6.5
v 5.08 -1.15 6.5
vn 0.0 1.0 -0.0
vn 0.0 1.0 0.0
vn 1.0 -0.0 0.0
vn 1.0 0.0 0.0
vn 1.0 0.0 0.0
vn 1.0 -0.0 0.0
vn 1.0 -0.0 0.0
vn 1.0 0.0 0.0
vn 1.0 0.0 0.0
vn 1.0 0.0 0.0
vn 1.0 0.0 0.0
vn 1.0 0.0 0.0
vn 1.0 0.0 0.0
vn 1.0 -0.0 0.0
vn 1.0 -0.0 0.0
vn 1.0 -0.0 0.0
vn 1.0 0.0 0.0
vn 1.0 -0.0 0.0
vn -1.0 -0.0 0.0
vn -1.0 0.0 0.0
vn -1.0 0.0 0.0
vn -1.0 0.0 0.0
vn -1.0 0.0 0.0
vn -1.0 0.0 0.0
vn -1.0 0.0 0.0
vn -1.0 0.0 0.0
vn -1.0 0.0 0.0
vn -1.0 0.0 0.0
vn -1.0 -0.0 0.0
vn -1.0 -0.0 0.0
vn -1.0 -0.0 0.0
vn -1.0 -0.0 0.0
vn -1.0 0.0 0.0
vn -1.0 -0.0 0.0
vn 0.0 0.0 -1.0
vn 0.0 0.0 -1.0
vn 0.0 0.0 1.0
vn 0.0 0.0 1.0
vn 0.0 -0.992709 0.120537
vn 0.0 -0.935016 0.354605
vn 0.0 -0.992709 0.120537
vn 0.0 -0.822984 0.568065
vn 0.0 -0.935016 0.354605
vn 0.0 -0.663123 0.748511
vn 0.0 -0.822984 0.568065
vn 0.0 -0.464723 0.885456
vn 0.0 -0.663123 0.748511
vn 0.0 -0.239315 0.970942
vn 0.0 -0.464723 0.885456
vn 0.0 0.0 1.0
vn 0.0 -0.239315 0.970942
vn 0.0 0.239315 0.970942
vn 0.0 0.0 1.0
vn 0.0 0.464723 0.885456
vn 0.0 0.239315 0.970942
vn 0.0 0.663122 0.748511
vn 0.0 0.464723 0.885456
vn 0.0 0.822984 0.568065
vn 0.0 0.663122 0.748511
vn 0.0 0.935016 0.354605
vn 0.0 0.822984 0.568065
vn 0.0 0.992709 0.120536
vn 0.0 0.935016 0.354605
vn 0.0 0.992709 0.120536
vn 0.0 0.992709 0.120536
vn 0.0 0.992709 0.120536
vn 0.0 0.0 1.0
vn 0.0 0.0 1.0
vn 0.0 -1.0 0.0
vn 0.0 -1.0 0.0
vn 0.0 -1.0 0.0
vn 0.0 -1.0 0.0
vn 0.0 0.0 1.0
vn 0.0 0.0 1.0
vn 0.0 1.0 -0.0
vn 0.0 1.0 0.0
vn 1.0 -0.0 0.0
vn 1.0 0.0 0.0
vn 1.0 0.0 0.0
vn 0.0 -1.0 0.0
vn 0.0 -1.0 0.0
vn -1.0 0.0 0.0
vn -1.0 0.0 0.0
vn -1.0 0.0 0.0
vn 0.0 0.656179 -0.754606
vn 0.0 0.656179 -0.754606
vn 0.0 0.0 1.0
vn 0.0 0.0 1.0
vn 1.0 0.0 0.0
vn -1.0 0.0 0.0
vn -0.0 0.656179 0.754606
vn 0.0 0.656179 0.754606
f 1//1 2//1 3//1 
f 3//2 2//2 4//2 
f 5//3 6//3 7//3 
f 5//4 8//4 6//4 
f 5//5 9//5 8//5 
f 10//6 11//6 12//6 
f 13//7 11//7 10//7 
f 14//8 11//8 13//8 
f 15//9 11//9 14//9 
f 9//10 11//10 15//10 
f 5//11 11//11 9//11 
f 16//12 3//12 17//12 
f 18//13 3//13 16//13 
f 19//14 1//14 18//14 
f 20//15 1//15 19//15 
f 12//16 1//16 20//16 
f 11//17 1//17 12//17 
f 18//18 1//18 3//18 
f 4//19 21//19 22//19 
f 2//20 23//20 4//20 
f 4//21 23//21 21//21 
f 2//22 24//22 23//22 
f 2//23 25//23 24//23 
f 2//24 26//24 25//24 
f 27//25 28//25 29//25 
f 29//26 28//26 30//26 
f 30//27 28//27 31//27 
f 26//28 32//28 33//28 
f 33//29 32//29 34//29 
f 34//30 32//30 35//30 
f 35//31 32//31 36//31 
f 36//32 32//32 27//32 
f 2//33 32//33 26//33 
f 27//34 32//34 28//34 
f 2//35 1//35 11//35 
f 2//36 11//36 32//36 
f 3//37 4//37 17//37 
f 17//38 4//38 22//38 
f 17//39 22//39 16//39 
f 16//40 21//40 18//40 
f 22//41 21//41 16//41 
f 18//42 23//42 19//42 
f 21//43 23//43 18//43 
f 19//44 24//44 20//44 
f 23//45 24//45 19//45 
f 20//46 25//46 12//46 
f 24//47 25//47 20//47 
f 12//48 26//48 10//48 
f 25//49 26//49 12//49 
f 10//50 33//50 13//50 
f 26//51 33//51 10//51 
f 13//52 34//52 14//52 
f 33//53 34//53 13//53 
f 14//54 35//54 15//54 
f 34//55 35//55 14//55 
f 15//56 36//56 9//56 
f 35//57 36//57 15//57 
f 9//58 27//58 8//58 
f 36//59 27//59 9//59 
f 8//60 29//60 6//60 
f 27//61 29//61 8//61 
f 6//62 37//62 7//62 
f 29//63 30//63 6//63 
f 6//64 30//64 37//64 
f 30//65 38//65 37//65 
f 30//66 31//66 38//66 
f 7//67 37//67 5//67 
f 5//68 37//68 39//68 
f 28//69 32//69 40//69 
f 32//70 39//70 40//70 
f 39//71 11//71 5//71 
f 32//72 11//72 39//72 
f 38//73 31//73 40//73 
f 40//74 31//74 28//74 
f 37//75 38//75 41//75 
f 41//76 38//76 42//76 
f 43//77 41//77 44//77 
f 43//78 39//78 41//78 
f 39//79 37//79 41//79 
f 40//80 39//80 45//80 
f 45//81 39//81 43//81 
f 46//82 42//82 45//82 
f 38//83 40//83 42//83 
f 42//84 40//84 45//84 
f 42//85 47//85 41//85 
f 41//86 47//86 48//86 
f 43//87 46//87 45//87 
f 44//88 46//88 43//88 
f 48//89 44//89 41//89 
f 46//90 47//90 42//90 
f 47//91 46//91 48//91 
f 48//92 46//92 44//92 
o Chamfer003
usemtl color_664600
v 0.32 -0.32 -3.35
v 0.32 -0.32 9.85
v -0.32 -0.32 -3.35
v -0.32 -0.32 9.85
v 0.32 0.32 -3.35
v 0.32 0.32 9.85
v 0.17 -0.17 -3.5
v -0.17 -0.17 -3.5
v 0.17 -0.17 10.0
v -0.17 -0.17 10.0
v -0.32 0.32 -3.35
v -0.32 0.32 9.85
v 0.17 0.17 -3.5
v 0.17 0.17 10.0
v -0.17 0.17 -3.5
v -0.17 0.17 10.0
f 49 50 52 51
f 53 54 50 49
f 55 49 51 56
f 52 58 57 50
f 51 52 60 59
f 59 60 54 53
f 61 53 49 55
f 50 57 62 54
f 61 63 56 55
f 63 59 51 56
f 58 57 62 64
f 60 64 58 52
f 61 53 59 63
f 54 62 64 60
o Chamfer004
usemtl color_664600
v 2.86 -0.32 -3.35
v 2.86 -0.32 9.85
v 2.22 -0.32 -3.35
v 2.22 -0.32 9.85
v 2.86 0.32 -3.35
v 2.86 0.32 9.85
v 2.71 -0.17 -3.5
v 2.37 -0.17 -3.5
v 2.71 -0.17 10.0
v 2.37 -0.17 10.0
v 2.22 0.32 -3.35
v 2.22 0.32 9.85
v 2.71 0.17 -3.5
v 2.71 0.17 10.0
v 2.37 0.17 -3.5
v 2.37 0.17 10.0
f 65 66 68 67
f 69 70 66 65
f 71 65 67 72
f 68 74 73 66
f 67 68 76 75
f 75 76 70 69
f 77 69 65 71
f 66 73 78 70
f 77 79 72 71
f 79 75 67 72
f 74 73 78 80
f 76 80 74 68
f 77 69 75 79
f 70 78 80 76
o Chamfer005
usemtl color_664600
v 5.4 -0.32 -3.35
v 5.4 -0.32 9.85
v 4.76 -0.32 -3.35
v 4.76 -0.32 9.85
v 5.4 0.32 -3.35
v 5.4 0.32 9.85
v 5.25 -0.17 -3.5
v 4.91 -0.17 -3.5
v 5.25 -0.17 10.0
v 4.91 -0.17 10.0
v 4.76 0.32 -3.35
v 4.76 0.32 9.85
v 5.25 0.17 -3.5
v 5.25 0.17 10.0
v 4.91 0.17 -3.5
v 4.91 0.17 10.0
f 81 82 84 83
f 85 86 82 81
f 87 81 83 88
f 84 90 89 82
f 83 84 92 91
f 91 92 86 85
f 93 85 81 87
f 82 89 94 86
f 93 95 88 87
f 95 91 83 88
f 90 89 94 96
f 92 96 90 84
f 93 85 91 95
f 86 94 96 92
