{"accessors":[{"bufferView":0,"byteOffset":0,"componentType":5126,"count":3534,"max":[0.00554,0.00401,0.002999710154119143],"min":[-0.00045884067248366247,0.00381,-0.0029997101541191437],"type":"VEC3"},{"bufferView":0,"byteOffset":42408,"componentType":5126,"count":228,"max":[0.00554,0.01361,0.0029997101541191437],"min":[-0.00045884067248366247,0.00401,-0.0029997101541191437],"type":"VEC3"},{"bufferView":0,"byteOffset":45144,"componentType":5126,"count":801,"max":[0.00534,0.00381,0.002799729477177867],"min":[-0.00025891796098475163,0.00381,-0.0027997294771778666],"type":"VEC3"},{"bufferView":0,"byteOffset":54756,"componentType":5126,"count":3534,"max":[0.00554,0.013810000000000001,0.0029997101541191437],"min":[-0.00045884067248366247,0.01361,-0.002999710154119143],"type":"VEC3"},{"bufferView":0,"byteOffset":97164,"componentType":5126,"count":7423,"max":[0.004033275344707999,0.00381,0.001493232977046],"min":[0.002286024111648348,0.0019368664925725329,-0.0020065758883516522],"type":"VEC3"},{"bufferView":0,"byteOffset":186240,"componentType":5126,"count":7251,"max":[0.002794,0.00381,0.002006572111587277],"min":[0.0010467437810248621,0.0019368790530820007,-0.0014932323124841344],"type":"VEC3"},{"bufferView":0,"byteOffset":273252,"componentType":5126,"count":1960,"max":[0.0010414,0.00381,0.000254],"min":[0.000174585882743154,0.002411672781069,-0.000254],"type":"VEC3"},{"bufferView":0,"byteOffset":296772,"componentType":5126,"count":1867,"max":[0.004905498825,0.00381,0.000254],"min":[0.004038696442015662,0.0024117223721607365,-0.000254],"type":"VEC3"},{"bufferView":0,"byteOffset":319176,"componentType":5126,"count":798,"max":[0.00534,0.013810000000000001,0.0027997294771778666],"min":[-0.00025891796098475163,0.013810000000000001,-0.002799729477177867],"type":"VEC3"},{"bufferView":0,"byteOffset":328752,"componentType":5126,"count":1881,"max":[0.000612898825,0.0026682776278392634,0.000254],"min":[-0.000254,0.00127,-0.000254],"type":"VEC3"},{"bufferView":0,"byteOffset":351324,"componentType":5126,"count":1966,"max":[0.005333999999999999,0.0026683272189310004,0.000254],"min":[0.004467185882743154,0.00127,-0.000254],"type":"VEC3"},{"bufferView":0,"byteOffset":374916,"componentType":5126,"count":6726,"max":[0.0045466,0.01530312069658687,0.00025397545971542104],"min":[0.0022860423676619914,0.013810000000000001,-0.0020066000000000003],"type":"VEC3"},{"bufferView":0,"byteOffset":455628,"componentType":5126,"count":6670,"max":[0.004033275344707999,0.01581637700278483,0.001493232977046],"min":[0.0010467401956978954,0.013810000000000001,-0.001493213184986058],"type":"VEC3"},{"bufferView":0,"byteOffset":535668,"componentType":5126,"count":6727,"max":[0.002794,0.015303152219051062,0.002006572111587277],"min":[0.0005334433703836545,0.013810000000000001,-0.000254],"type":"VEC3"},{"bufferView":0,"byteOffset":616392,"componentType":5126,"count":348,"max":[0.0061226039802270244,0.00127,0.0010429999999999999],"min":[-0.0010426039802270246,0.00127,-0.0010429999999999999],"type":"VEC3"},{"bufferView":0,"byteOffset":620568,"componentType":5126,"count":1740,"max":[5.653510985053328e-20,0.00127,0.0011430000000000001],"min":[-0.00114256601092952,0.00117,-0.0011430000000000001],"type":"VEC3"},{"bufferView":0,"byteOffset":641448,"componentType":5126,"count":60,"max":[0.00508,0.00127,0.0011430000000000001],"min":[0.0,0.00117,0.0010429999999999999],"type":"VEC3"},{"bufferView":0,"byteOffset":642168,"componentType":5126,"count":1740,"max":[0.00622256601092952,0.00127,0.0011430000000000001],"min":[0.00508,0.00117,-0.0011430000000000001],"type":"VEC3"},{"bufferView":0,"byteOffset":663048,"componentType":5126,"count":60,"max":[0.00508,0.00127,-0.0010429999999999999],"min":[-3.9061384864719336e-21,0.00117,-0.0011430000000000001],"type":"VEC3"},{"bufferView":0,"byteOffset":663768,"componentType":5126,"count":116,"max":[0.0,0.00117,0.0011430000000000001],"min":[-0.00114256601092952,0.0001,-0.0011430000000000001],"type":"VEC3"},{"bufferView":0,"byteOffset":665160,"componentType":5126,"count":4,"max":[0.00508,0.00117,0.0011430000000000001],"min":[0.0,0.0001,0.0011430000000000001],"type":"VEC3"},{"bufferView":0,"byteOffset":665208,"componentType":5126,"count":116,"max":[0.00622256601092952,0.00117,0.0011430000000000001],"min":[0.00508,0.0001,-0.0011430000000000001],"type":"VEC3"},{"bufferView":0,"byteOffset":666600,"componentType":5126,"count":4,"max":[0.00508,0.00117,-0.0011430000000000001],"min":[0.0,0.0001,-0.0011430000000000001],"type":"VEC3"},{"bufferView":0,"byteOffset":666648,"componentType":5126,"count":1740,"max":[5.65351098505333e-20,0.0001,0.0011430000000000001],"min":[-0.00114256601092952,0.0,-0.0011430000000000001],"type":"VEC3"},{"bufferView":0,"byteOffset":687528,"componentType":5126,"count":60,"max":[0.00508,0.0001,0.0011430000000000001],"min":[0.0,0.0,0.0010429999999999999],"type":"VEC3"},{"bufferView":0,"byteOffset":688248,"componentType":5126,"count":1740,"max":[0.00622256601092952,0.0001,0.0011430000000000001],"min":[0.00508,0.0,-0.0011430000000000001],"type":"VEC3"},{"bufferView":0,"byteOffset":709128,"componentType":5126,"count":60,"max":[0.00508,0.0001,-0.0010429999999999999],"min":[-3.9061384864719336e-21,0.0,-0.0011430000000000001],"type":"VEC3"},{"bufferView":0,"byteOffset":709848,"componentType":5126,"count":342,"max":[0.0061226039802270244,0.0,0.0010429999999999999],"min":[-0.0010426039802270246,0.0,-0.0010429999999999999],"type":"VEC3"},{"bufferView":0,"byteOffset":713952,"componentType":5126,"count":228,"max":[0.000254,0.0,0.0002539754597154209],"min":[-0.00025390184360361677,-0.00254,-0.0002539754597154208],"type":"VEC3"},{"bufferView":0,"byteOffset":716688,"componentType":5126,"count":228,"max":[0.005333999999999999,0.0,0.0002539754597154209],"min":[0.004826098156396383,-0.00254,-0.0002539754597154208],"type":"VEC3"},{"bufferView":0,"byteOffset":719424,"componentType":5126,"count":113,"max":[0.000254,-0.00254,0.0002539754597154209],"min":[-0.00025390184360361677,-0.00254,-0.0002539754597154208],"type":"VEC3"},{"bufferView":0,"byteOffset":720780,"componentType":5126,"count":113,"max":[0.005333999999999999,-0.00254,0.0002539754597154209],"min":[0.004826098156396383,-0.00254,-0.0002539754597154208],"type":"VEC3"},{"bufferView":1,"byteOffset":0,"componentType":5126,"count":3534,"type":"VEC3"},{"bufferView":1,"byteOffset":42408,"componentType":5126,"count":228,"type":"VEC3"},{"bufferView":1,"byteOffset":45144,"componentType":5126,"count":801,"type":"VEC3"},{"bufferView":1,"byteOffset":54756,"componentType":5126,"count":3534,"type":"VEC3"},{"bufferView":1,"byteOffset":97164,"componentType":5126,"count":7423,"type":"VEC3"},{"bufferView":1,"byteOffset":186240,"componentType":5126,"count":7251,"type":"VEC3"},{"bufferView":1,"byteOffset":273252,"componentType":5126,"count":1960,"type":"VEC3"},{"bufferView":1,"byteOffset":296772,"componentType":5126,"count":1867,"type":"VEC3"},{"bufferView":1,"byteOffset":319176,"componentType":5126,"count":798,"type":"VEC3"},{"bufferView":1,"byteOffset":328752,"componentType":5126,"count":1881,"type":"VEC3"},{"bufferView":1,"byteOffset":351324,"componentType":5126,"count":1966,"type":"VEC3"},{"bufferView":1,"byteOffset":374916,"componentType":5126,"count":6726,"type":"VEC3"},{"bufferView":1,"byteOffset":455628,"componentType":5126,"count":6670,"type":"VEC3"},{"bufferView":1,"byteOffset":535668,"componentType":5126,"count":6727,"type":"VEC3"},{"bufferView":1,"byteOffset":616392,"componentType":5126,"count":348,"type":"VEC3"},{"bufferView":1,"byteOffset":620568,"componentType":5126,"count":1740,"type":"VEC3"},{"bufferView":1,"byteOffset":641448,"componentType":5126,"count":60,"type":"VEC3"},{"bufferView":1,"byteOffset":642168,"componentType":5126,"count":1740,"type":"VEC3"},{"bufferView":1,"byteOffset":663048,"componentType":5126,"count":60,"type":"VEC3"},{"bufferView":1,"byteOffset":663768,"componentType":5126,"count":116,"type":"VEC3"},{"bufferView":1,"byteOffset":665160,"componentType":5126,"count":4,"type":"VEC3"},{"bufferView":1,"byteOffset":665208,"componentType":5126,"count":116,"type":"VEC3"},{"bufferView":1,"byteOffset":666600,"componentType":5126,"count":4,"type":"VEC3"},{"bufferView":1,"byteOffset":666648,"componentType":5126,"count":1740,"type":"VEC3"},{"bufferView":1,"byteOffset":687528,"componentType":5126,"count":60,"type":"VEC3"},{"bufferView":1,"byteOffset":688248,"componentType":5126,"count":1740,"type":"VEC3"},{"bufferView":1,"byteOffset":709128,"componentType":5126,"count":60,"type":"VEC3"},{"bufferView":1,"byteOffset":709848,"componentType":5126,"count":342,"type":"VEC3"},{"bufferView":1,"byteOffset":713952,"componentType":5126,"count":228,"type":"VEC3"},{"bufferView":1,"byteOffset":716688,"componentType":5126,"count":228,"type":"VEC3"},{"bufferView":1,"byteOffset":719424,"componentType":5126,"count":113,"type":"VEC3"},{"bufferView":1,"byteOffset":720780,"componentType":5126,"count":113,"type":"VEC3"},{"bufferView":2,"byteOffset":0,"componentType":5123,"count":20340,"type":"SCALAR"},{"bufferView":2,"byteOffset":40680,"componentType":5123,"count":678,"type":"SCALAR"},{"bufferView":2,"byteOffset":42036,"componentType":5123,"count":2433,"type":"SCALAR"},{"bufferView":2,"byteOffset":46904,"componentType":5123,"count":20340,"type":"SCALAR"},{"bufferView":2,"byteOffset":87584,"componentType":5123,"count":43467,"type":"SCALAR"},{"bufferView":2,"byteOffset":174520,"componentType":5123,"count":42447,"type":"SCALAR"},{"bufferView":2,"byteOffset":259416,"componentType":5123,"count":11010,"type":"SCALAR"},{"bufferView":2,"byteOffset":281436,"componentType":5123,"count":10452,"type":"SCALAR"},{"bufferView":2,"byteOffset":302340,"componentType":5123,"count":2424,"type":"SCALAR"},{"bufferView":2,"byteOffset":307188,"componentType":5123,"count":10533,"type":"SCALAR"},{"bufferView":2,"byteOffset":328256,"componentType":5123,"count":11043,"type":"SCALAR"},{"bufferView":2,"byteOffset":350344,"componentType":5123,"count":39324,"type":"SCALAR"},{"bufferView":2,"byteOffset":428992,"componentType":5123,"count":38988,"type":"SCALAR"},{"bufferView":2,"byteOffset":506968,"componentType":5123,"count":39327,"type":"SCALAR"},{"bufferView":2,"byteOffset":585624,"componentType":5123,"count":1050,"type":"SCALAR"},{"bufferView":2,"byteOffset":587724,"componentType":5123,"count":9918,"type":"SCALAR"},{"bufferView":2,"byteOffset":607560,"componentType":5123,"count":174,"type":"SCALAR"},{"bufferView":2,"byteOffset":607908,"componentType":5123,"count":9918,"type":"SCALAR"},{"bufferView":2,"byteOffset":627744,"componentType":5123,"count":174,"type":"SCALAR"},{"bufferView":2,"byteOffset":628092,"componentType":5123,"count":342,"type":"SCALAR"},{"bufferView":2,"byteOffset":628776,"componentType":5123,"count":6,"type":"SCALAR"},{"bufferView":2,"byteOffset":628788,"componentType":5123,"count":342,"type":"SCALAR"},{"bufferView":2,"byteOffset":629472,"componentType":5123,"count":6,"type":"SCALAR"},{"bufferView":2,"byteOffset":629484,"componentType":5123,"count":9918,"type":"SCALAR"},{"bufferView":2,"byteOffset":649320,"componentType":5123,"count":174,"type":"SCALAR"},{"bufferView":2,"byteOffset":649668,"componentType":5123,"count":9918,"type":"SCALAR"},{"bufferView":2,"byteOffset":669504,"componentType":5123,"count":174,"type":"SCALAR"},{"bufferView":2,"byteOffset":669852,"componentType":5123,"count":1032,"type":"SCALAR"},{"bufferView":2,"byteOffset":671916,"componentType":5123,"count":678,"type":"SCALAR"},{"bufferView":2,"byteOffset":673272,"componentType":5123,"count":678,"type":"SCALAR"},{"bufferView":2,"byteOffset":674628,"componentType":5123,"count":333,"type":"SCALAR"},{"bufferView":2,"byteOffset":675296,"componentType":5123,"count":333,"type":"SCALAR"}],"asset":{"generator":"Open CASCADE Technology 7.8 [dev.opencascade.org]","version":"2.0"},"bufferViews":[{"buffer":0,"byteLength":722136,"byteOffset":0,"byteStride":12,"target":34962},{"buffer":0,"byteLength":722136,"byteOffset":722136,"byteStride":12,"target":34962},{"buffer":0,"byteLength":675964,"byteOffset":1444272,"target":34963}],"buffers":[{"byteLength":2120236,"uri":"Unnamed-LairdTech_28C0236-0JW-10.bin"}],"materials":[{"name":"mat_0","pbrMetallicRoughness":{"baseColorFactor":[0.0,0.0,0.0,1.0]},"doubleSided":true},{"name":"mat_1","pbrMetallicRoughness":{"baseColorFactor":[0.2158605307340622,0.011612244881689548,0.0,1.0]},"doubleSided":true},{"name":"mat_2","pbrMetallicRoughness":{"baseColorFactor":[0.48514994978904724,0.48514994978904724,0.48514994978904724,1.0]},"doubleSided":true}],"meshes":[{"name":"LairdTech_28C0236-0JW-10","primitives":[{"attributes":{"NORMAL":32,"POSITION":0},"indices":64,"material":0,"mode":4},{"attributes":{"NORMAL":33,"POSITION":1},"indices":65,"material":0,"mode":4},{"attributes":{"NORMAL":34,"POSITION":2},"indices":66,"material":0,"mode":4},{"attributes":{"NORMAL":35,"POSITION":3},"indices":67,"material":0,"mode":4},{"attributes":{"NORMAL":36,"POSITION":4},"indices":68,"material":1,"mode":4},{"attributes":{"NORMAL":37,"POSITION":5},"indices":69,"material":1,"mode":4},{"attributes":{"NORMAL":38,"POSITION":6},"indices":70,"material":1,"mode":4},{"attributes":{"NORMAL":39,"POSITION":7},"indices":71,"material":1,"mode":4},{"attributes":{"NORMAL":40,"POSITION":8},"indices":72,"material":0,"mode":4},{"attributes":{"NORMAL":41,"POSITION":9},"indices":73,"material":1,"mode":4},{"attributes":{"NORMAL":42,"POSITION":10},"indices":74,"material":1,"mode":4},{"attributes":{"NORMAL":43,"POSITION":11},"indices":75,"material":1,"mode":4},{"attributes":{"NORMAL":44,"POSITION":12},"indices":76,"material":1,"mode":4},{"attributes":{"NORMAL":45,"POSITION":13},"indices":77,"material":1,"mode":4},{"attributes":{"NORMAL":46,"POSITION":14},"indices":78,"material":2,"mode":4},{"attributes":{"NORMAL":47,"POSITION":15},"indices":79,"material":2,"mode":4},{"attributes":{"NORMAL":48,"POSITION":16},"indices":80,"material":2,"mode":4},{"attributes":{"NORMAL":49,"POSITION":17},"indices":81,"material":2,"mode":4},{"attributes":{"NORMAL":50,"POSITION":18},"indices":82,"material":2,"mode":4},{"attributes":{"NORMAL":51,"POSITION":19},"indices":83,"material":2,"mode":4},{"attributes":{"NORMAL":52,"POSITION":20},"indices":84,"material":2,"mode":4},{"attributes":{"NORMAL":53,"POSITION":21},"indices":85,"material":2,"mode":4},{"attributes":{"NORMAL":54,"POSITION":22},"indices":86,"material":2,"mode":4},{"attributes":{"NORMAL":55,"POSITION":23},"indices":87,"material":2,"mode":4},{"attributes":{"NORMAL":56,"POSITION":24},"indices":88,"material":2,"mode":4},{"attributes":{"NORMAL":57,"POSITION":25},"indices":89,"material":2,"mode":4},{"attributes":{"NORMAL":58,"POSITION":26},"indices":90,"material":2,"mode":4},{"attributes":{"NORMAL":59,"POSITION":27},"indices":91,"material":2,"mode":4},{"attributes":{"NORMAL":60,"POSITION":28},"indices":92,"material":1,"mode":4},{"attributes":{"NORMAL":61,"POSITION":29},"indices":93,"material":1,"mode":4},{"attributes":{"NORMAL":62,"POSITION":30},"indices":94,"material":1,"mode":4},{"attributes":{"NORMAL":63,"POSITION":31},"indices":95,"material":1,"mode":4}]}],"nodes":[{"mesh":0,"name":"LairdTech_28C0236-0JW-10"}],"scene":0,"scenes":[{"nodes":[0]}]}