<svg xml:space="preserve" data-version="0.0.1" data-connection-points='{"top":[],"right":[{"id":202,"name":"Echo","location":0.50}],"bottom":[],"left":[{"id":401,"name":"Juliet","location":0.5}]}' viewBox="21.367521367521366 18 58.119658119658126 64.75" y="0px" x="0px" version="1.1" xmlns:xlink="http://www.w3.org/1999/xlink" xmlns="http://www.w3.org/2000/svg" style="max-height: 500px" width="58.119658119658126" height="64.75"><g><g><path d="M35.028,24.357c-0.631,0.536-0.708,1.482-0.173,2.114c0.093,0.109,8.857,10.58,9.59,22.029H17c-0.828,0-1.5,0.671-1.5,1.5    s0.672,1.5,1.5,1.5h27.442c-0.593,14.226-9.314,21.772-9.404,21.848c-0.636,0.53-0.722,1.477-0.191,2.113    C35.144,75.816,35.57,76,36,76c0.339,0,0.68-0.114,0.96-0.348C37.39,75.292,47.499,66.67,47.499,50    c0-13.136-9.935-24.974-10.357-25.471C36.606,23.898,35.66,23.821,35.028,24.357z"/><path d="M83,48.5H55.501v-23c0-0.829-0.672-1.5-1.5-1.5s-1.5,0.671-1.5,1.5V74.5c0,0.829,0.672,1.5,1.5,1.5s1.5-0.671,1.5-1.5v-23    H83c0.828,0,1.5-0.671,1.5-1.5S83.828,48.5,83,48.5z"/><path d="M64.209,28.125h3.499v3.5c0,0.829,0.672,1.5,1.5,1.5s1.5-0.671,1.5-1.5v-3.5h3.5c0.828,0,1.5-0.671,1.5-1.5    s-0.672-1.5-1.5-1.5h-3.5v-3.5c0-0.829-0.672-1.5-1.5-1.5s-1.5,0.671-1.5,1.5v3.5h-3.499c-0.828,0-1.5,0.671-1.5,1.5    S63.381,28.125,64.209,28.125z"/></g></g><text font-family="'Helvetica Neue', Helvetica, Arial-Unicode, Arial, Sans-serif" font-weight="bold" font-size="5px" fill="#000000" y="115" x="0">Created by Michael Senkow</text><text font-family="'Helvetica Neue', Helvetica, Arial-Unicode, Arial, Sans-serif" font-weight="bold" font-size="5px" fill="#000000" y="120" x="0">from the Noun Project</text></svg>