<svg data-version="0.0.1" data-connection-points='{"top":[{"id":202,"name":"Echo","location":0.50}],"right":[],"bottom":[{"id":401,"name":"Juliet","location":0.5}],"left":[]}' viewBox="11.25152625152625 0.8000000000000007 79.91452991452991 102.06" version="1.1" xmlns="http://www.w3.org/2000/svg" style="max-height: 500px" width="79.91452991452991" height="102.06">
 <g>
  <path d="m12.5 46.875c-1.7266 0-3.125-1.3984-3.125-3.125s1.3984-3.125 3.125-3.125h34.375v-34.375c0-1.7266 1.3984-3.125 3.125-3.125s3.125 1.3984 3.125 3.125v34.375h34.375c1.7266 0 3.125 1.3984 3.125 3.125s-1.3984 3.125-3.125 3.125z"/>
  <path d="m90.625 56.25c0-1.7266-1.3984-3.125-3.125-3.125h-75c-1.7266 0-3.125 1.3984-3.125 3.125s1.3984 3.125 3.125 3.125h34.375v34.375c0 1.7266 1.3984 3.125 3.125 3.125s3.125-1.3984 3.125-3.125v-34.375h34.375c1.7266 0 3.125-1.3984 3.125-3.125z"/>
 </g>
<text fill="#000000" font-family="Arbeit Regular, Helvetica, Arial-Unicode, Arial, Sans-serif" font-weight="bold" font-size="5.0" y="117.5" x="0.0">Created by HideMaru</text><text fill="#000000" font-family="Arbeit Regular, Helvetica, Arial-Unicode, Arial, Sans-serif" font-weight="bold" font-size="5.0" y="122.5" x="0.0">from Noun Project</text></svg>