<svg data-version="0.0.1" data-connection-points='{"top":[],"right":[{"id":202,"name":"Echo","location":0.50}],"bottom":[],"left":[{"id":401,"name":"Juliet","location":0.5}]}' viewBox="11.25152625152625 0.8000000000000007 79.91452991452991 102.06" version="1.1" xmlns="http://www.w3.org/2000/svg" style="max-height: 500px" width="79.91452991452991" height="102.06">
 <path d="m40 42v7h-14.5c-9 0-14.5 0.39844-14.5 1s5.5 1 14.5 1h14.5v7c0 4 0.39844 7 1 7s1-2.8008 1-6.5c0-3.6016 0.19922-6.5 0.39844-6.5 0.30078 0 4.8008 2.5 10 5.5 13.602 7.8008 12.602 7.8008 12.602 0.10156v-6.6016h12.5c7.6992 0 12.5-0.39844 12.5-1s-4.8008-1-12.5-1h-12.5v-6.6016c0-7.6992 1-7.6992-12.602 0.10156-5.1992 3-9.6992 5.5-10 5.5-0.19922 0-0.39844-2.8984-0.39844-6.5 0-3.6992-0.39844-6.5-1-6.5s-1 3-1 7zm22.801 13.5-0.30078 5.3984-9.1992-5.1992c-5.1016-2.8008-9.3008-5.3984-9.3008-5.6992s4.1992-2.8984 9.3008-5.6992l9.1992-5.1992 0.30078 5.3984c0.19922 3 0.19922 8 0 11z"/>
<text fill="#000000" font-family="Arbeit Regular, Helvetica, Arial-Unicode, Arial, Sans-serif" font-weight="bold" font-size="5.0" y="117.5" x="0.0">by Jonathan Michael Ryan Sitorus</text><text fill="#000000" font-family="Arbeit Regular, Helvetica, Arial-Unicode, Arial, Sans-serif" font-weight="bold" font-size="5.0" y="122.5" x="0.0">from Noun Project</text></svg>