<svg data-version="0.0.1" data-connection-points='{"top":[],"right":[{"id":202,"name":"Echo","location":0.50}],"bottom":[],"left":[{"id":401,"name":"Juliet","location":0.5}]}' viewBox="11.25152625152625 0.8000000000000007 79.91452991452991 102.06" version="1.1" xmlns="http://www.w3.org/2000/svg" style="max-height: 500px" width="79.91452991452991" height="102.06">
 <path fill-rule="evenodd" d="m68.75 93.75c0 1.7266 1.3984 3.125 3.125 3.125s3.125-1.3984 3.125-3.125v-40.625h18.75c1.7266 0 3.125-1.3984 3.125-3.125s-1.3984-3.125-3.125-3.125h-18.75v-40.625c0-1.7266-1.3984-3.125-3.125-3.125s-3.125 1.3984-3.125 3.125v34.973l-33.969-21.98c-6.2383-4.0352-14.469 0.44141-14.469 7.8711v19.762h-14.062c-1.7266 0-3.125 1.3984-3.125 3.125s1.3984 3.125 3.125 3.125h14.062v19.762c0 7.4297 8.2305 11.906 14.469 7.8711l33.969-21.98zm-42.188-66.637c0-2.4766 2.7422-3.9688 4.8242-2.625l35.367 22.887c1.9062 1.2344 1.9062 4.0156 0 5.25l-35.367 22.887c-2.082 1.3438-4.8242-0.14844-4.8242-2.625z"/>
<text fill="#000000" font-family="Arbeit Regular, Helvetica, Arial-Unicode, Arial, Sans-serif" font-weight="bold" font-size="5.0" y="117.5" x="0.0">Created by HideMaru</text><text fill="#000000" font-family="Arbeit Regular, Helvetica, Arial-Unicode, Arial, Sans-serif" font-weight="bold" font-size="5.0" y="122.5" x="0.0">from Noun Project</text></svg>