<svg data-version="0.0.1" data-connection-points='{"top":[],"right":[{"id":202,"name":"Echo","location":0.50}],"bottom":[],"left":[{"id":401,"name":"Juliet","location":0.5}]}' viewBox="11.25152625152625 0.8000000000000007 79.91452991452991 102.06" version="1.1" xmlns="http://www.w3.org/2000/svg" style="max-height: 500px" width="79.91452991452991" height="102.06">
 <path d="m40.574 58.383v-7.0312h-40.57v-2.7109h40.57l0.015625-14.055 12.039 6.8789c6.6211 3.7852 12.062 6.8867 12.086 6.8945 0.042968 0.011719 0.046875-0.035156 0.046875-0.72656 0-0.40625 0.019531-2.2227 0.039062-4.0312 0.023438-1.8086 0.039063-3.4492 0.039063-3.6406v-0.34766l1.3477 0.019531c0.74219 0.011719 1.3516 0.023438 1.3555 0.027344 0.007812 0.007813-0.066407 7.1914-0.085938 8.3633l-0.011719 0.61719h32.547v2.7109h-32.586v0.54688c0 0.30078-0.019531 2.0352-0.039062 3.8516-0.023438 1.8164-0.039063 3.6016-0.039063 3.9648v0.66016l-1.3477-0.019531c-0.74219-0.011719-1.3516-0.023438-1.3594-0.027344-0.003906-0.003906 0.011718-1.9609 0.039062-4.3438s0.042969-4.3398 0.039063-4.3438c-0.003907-0.003906-5.4023 3.0742-11.996 6.8398-6.5938 3.7695-12.02 6.8672-12.059 6.8906l-0.074219 0.039062v-7.0312z"/>
<text fill="#000000" font-family="Arbeit Regular, Helvetica, Arial-Unicode, Arial, Sans-serif" font-weight="bold" font-size="5.0" y="117.5" x="0.0">Created by Lucas Rathgeb</text><text fill="#000000" font-family="Arbeit Regular, Helvetica, Arial-Unicode, Arial, Sans-serif" font-weight="bold" font-size="5.0" y="122.5" x="0.0">from Noun Project</text></svg>