<svg data-version="0.0.1" data-connection-points='{"top":[],"right":[{"id":202,"name":"Echo","location":0.50}],"bottom":[],"left":[{"id":401,"name":"Juliet","location":0.5}]}'  y="0px" x="0px" version="1.1" viewBox="0.9381562733821734 0.6349999900000001 4.621001148229548 4.984749921500001" xmlns="http://www.w3.org/2000/svg" style="max-height: 500px" width="4.621001148229548" height="4.984749921500001"><title>Inkscape </title><g><g fill="#000000" style=""><path d="m 12.039062,5.71875 a 0.50004934,0.50004934 0 0 0 -0.03516,0.00195 0.50004934,0.50004934 0 0 0 -0.435547,0.3554688 L 9.375,13.671875 7.5,6.2890625 A 0.50004934,0.50004934 0 0 0 6.5410156,6.2675781 L 4.9082031,11.507812 H 0 A 0.49999938,0.49999938 0 0 0 -0.50195312,12.009766 0.49999938,0.49999938 0 0 0 0,12.505859 H 5.2773438 A 0.50004934,0.50004934 0 0 0 5.75,12.158203 L 6.96875,8.2460938 8.8574219,15.708984 a 0.50004934,0.50004934 0 0 0 0.96875,0.01367 l 2.2070311,-7.6464841 2.080078,7.6777341 a 0.50004934,0.50004934 0 0 0 0.96875,-0.0078 l 1.896485,-7.5078128 1.048828,3.8984378 a 0.50004934,0.50004934 0 0 0 0.478515,0.36914 h 5.484375 a 0.49999938,0.49999938 0 0 0 0.496094,-0.496093 0.49999938,0.49999938 0 0 0 -0.496094,-0.501954 H 18.890625 L 17.443359,6.1191406 a 0.50004934,0.50004934 0 0 0 -0.966797,0.00781 L 14.580078,13.642578 12.527344,6.0820312 A 0.50004934,0.50004934 0 0 0 12.039062,5.71875 Z" transform="scale(0.26458333)" style="color:#000000;font-style:normal;font-variant:normal;font-weight:normal;font-stretch:normal;font-size:medium;line-height:normal;font-family:sans-serif;font-variant-ligatures:normal;font-variant-position:normal;font-variant-caps:normal;font-variant-numeric:normal;font-variant-alternates:normal;font-variant-east-asian:normal;font-feature-settings:normal;font-variation-settings:normal;text-indent:0;text-align:start;text-decoration:none;text-decoration-line:none;text-decoration-style:solid;text-decoration-color:#000000;letter-spacing:normal;word-spacing:normal;text-transform:none;writing-mode:lr-tb;direction:ltr;text-orientation:mixed;dominant-baseline:auto;baseline-shift:baseline;text-anchor:start;white-space:normal;shape-padding:0;shape-margin:0;inline-size:0;clip-rule:nonzero;display:inline;overflow:visible;visibility:visible;opacity:1;isolation:auto;mix-blend-mode:normal;color-interpolation:sRGB;color-interpolation-filters:linearRGB;solid-color:#000000;solid-opacity:1;vector-effect:none;fill:#000000;fill-opacity:1;fill-rule:nonzero;stroke:none;stroke-width:3.77953;stroke-linecap:round;stroke-linejoin:round;stroke-miterlimit:4;stroke-dasharray:none;stroke-dashoffset:0;stroke-opacity:1;color-rendering:auto;image-rendering:auto;shape-rendering:auto;text-rendering:auto;enable-background:accumulate;stop-color:#000000;stop-opacity:1"/></g></g><text font-family="'Helvetica Neue', Helvetica, Arial-Unicode, Arial, Sans-serif" font-weight="bold" font-size="5px" fill="#000000" y="21.3499999" x="0">Created by Lailatul Marhamah</text><text font-family="'Helvetica Neue', Helvetica, Arial-Unicode, Arial, Sans-serif" font-weight="bold" font-size="5px" fill="#000000" y="26.3499999" x="0">from the Noun Project</text></svg>