<svg data-version="0.0.1" data-connection-points='{"top":[{"id":205,"name":"World","location":0.70}],"right":[],"bottom":[{"id":203,"name":"Hello","location":0.70}],"left":[{"id":401,"name":"Juliet","location":0.5}]}' viewBox="11.25152625152625 0.8000000000000007 80.58608058608058 99.36" version="1.1" xmlns="http://www.w3.org/2000/svg" style="max-height: 500px" width="80.58608058608058" height="99.36">
 <path d="m48.34 61.789c1.4219 0 2.5586-1.1484 2.5586-2.5586v-18.461c0-1.4219-1.1484-2.5586-2.5586-2.5586s-2.5586 1.1484-2.5586 2.5586v6.6719h-7.9414c-0.089844 0.83984-0.14062 1.6914-0.14062 2.5586 0 0.87109 0.050781 1.7188 0.14062 2.5586h7.9414v6.6719c0 1.4219 1.1484 2.5586 2.5586 2.5586z"/>
 <path d="m28.461 50c0-0.85938 0.03125-1.7188 0.10156-2.5586h-18.562v5.1289h18.559c-0.070313-0.83984-0.10156-1.6992-0.10156-2.5586z"/>
 <path d="m69.559 39.859h-10.961v-4.2188c0-1.4219-1.1484-2.5586-2.5586-2.5586-1.4102 0-2.5586 1.1484-2.5586 2.5586v28.719c0 1.4219 1.1484 2.5586 2.5586 2.5586 1.4102 0 2.5586-1.1484 2.5586-2.5586v-4.2188h10.961v29.859h5.1289l0.003906-32.43c0-1.4219-1.1484-2.5586-2.5586-2.5586h-13.531v-10.02h13.531c1.4219 0 2.5586-1.1484 2.5586-2.5586v-32.434h-5.1289v29.859z"/>
 <path d="m76.738 25.25v6.4688c4.9805 4.5117 8.1289 11.039 8.1289 18.281 0 7.2383-3.1484 13.762-8.1289 18.281v6.4688c7.9883-5.3281 13.262-14.441 13.262-24.75s-5.2695-19.422-13.262-24.75z"/>
 <path d="m30.512 50c0 16.398 13.34 29.738 29.738 29.738 2.5 0 4.9219-0.30859 7.25-0.89062v-5.3203c-2.2891 0.71094-4.7305 1.0898-7.25 1.0898-13.57 0-24.621-11.051-24.621-24.621 0-13.57 11.051-24.621 24.621-24.621 2.5195 0 4.9609 0.37891 7.25 1.0898v-5.3203c-2.3281-0.57812-4.75-0.89062-7.25-0.89062-16.398 0-29.738 13.34-29.738 29.738z"/>
<text fill="#000000" font-family="Arbeit Regular, Helvetica, Arial-Unicode, Arial, Sans-serif" font-weight="bold" font-size="5.0" y="117.5" x="0.0">Created by M. Tohirin</text><text fill="#000000" font-family="Arbeit Regular, Helvetica, Arial-Unicode, Arial, Sans-serif" font-weight="bold" font-size="5.0" y="122.5" x="0.0">from Noun Project</text></svg>